<?xml version="1.0" encoding="UTF-8" standalone="no"?><!DOCTYPE svg PUBLIC "-//W3C//DTD SVG 1.1//EN" "http://www.w3.org/Graphics/SVG/1.1/DTD/svg11.dtd"><svg width="100%" height="100%" viewBox="0 0 438 634" version="1.1" xmlns="http://www.w3.org/2000/svg" xmlns:xlink="http://www.w3.org/1999/xlink" xml:space="preserve" xmlns:serif="http://www.serif.com/" style="fill-rule:evenodd;clip-rule:evenodd;stroke-linejoin:round;stroke-miterlimit:2;"><path d="M290.833,229.167c-31.25,-60.417 -48.333,-115 -57.5,-157.917c-3.75,-2.5 -10,-0.833 -10.833,1.25l0,221.25c2.917,0.833 10,2.917 16.25,9.583c8.333,8.75 8.75,19.167 8.75,22.083c0,1.25 1.667,15 -9.167,24.167c-8.333,7.5 -18.333,7.083 -21.25,6.667c-2.917,-0.417 -0.833,0 -0.833,0c-2.917,0 -12.917,0.833 -21.25,-6.667c-10.417,-9.583 -9.167,-22.917 -9.167,-24.167c0,-2.917 0.417,-13.333 8.75,-22.083c6.25,-6.667 13.333,-8.75 16.25,-9.583l0,-221.25c0,-1.25 -7.083,-5 -10.833,-1.25c-9.167,42.917 -26.25,97.5 -57.5,157.917c-37.5,71.667 -81.667,124.167 -116.667,158.75c-2.5,2.5 -2.083,7.083 1.25,8.75c12.917,6.25 33.333,18.75 50.417,41.667c15,20.417 21.667,40.833 24.583,54.167c0.833,3.333 3.75,5.833 7.5,5.833l72.5,0l0,83.75c0,2.917 2.5,5.417 5.417,5.417l3.75,0c1.667,0 3.333,-0.833 4.167,-2.083l72.083,-87.083l56.25,0c3.75,0 6.667,-2.5 7.5,-5.833c2.917,-13.333 9.167,-33.75 24.583,-54.167c17.083,-22.917 37.083,-35.417 50.417,-41.667c3.333,-1.667 4.167,-5.833 1.25,-8.75c-35,-34.583 -79.583,-87.083 -116.667,-158.75Z" style="fill:#4378ed;fill-rule:nonzero;"/></svg>