<?xml version="1.0" encoding="UTF-8" standalone="no"?><!DOCTYPE svg PUBLIC "-//W3C//DTD SVG 1.1//EN" "http://www.w3.org/Graphics/SVG/1.1/DTD/svg11.dtd"><svg width="100%" height="100%" viewBox="0 0 1734 646" version="1.1" xmlns="http://www.w3.org/2000/svg" xmlns:xlink="http://www.w3.org/1999/xlink" xml:space="preserve" xmlns:serif="http://www.serif.com/" style="fill-rule:evenodd;clip-rule:evenodd;stroke-linejoin:round;stroke-miterlimit:2;"><path d="M297.625,248.625c-26.042,-50.083 -39.875,-95.125 -47.625,-130.542c-3,-2 -8.167,-0.667 -8.917,1l0,182.875c2.5,0.625 8.417,2.458 13.417,7.917c6.708,7.292 7.083,15.875 7.125,18.125c0.125,1.042 1.25,12.333 -7.583,20.125c-6.958,6.125 -15.167,5.833 -17.542,5.625l-0.583,0c-2.417,0.292 -10.625,0.583 -17.542,-5.583c-8.792,-7.792 -7.708,-19.083 -7.583,-20.125c0,-2.25 0.417,-10.833 7.125,-18.125c5.042,-5.458 10.917,-7.292 13.417,-7.917l0,-182.875c0,-0.917 -5.708,-4.208 -8.917,-1c-7.708,35.458 -21.583,80.458 -47.625,130.542c-30.875,59.375 -67.625,102.625 -96.5,131.417c-2.167,2.167 -1.583,5.792 1.167,7.125c10.833,5.292 27.583,15.625 41.667,34.5c12.583,16.917 17.875,33.75 20.167,44.667c0.625,2.917 3.208,5 6.208,5l59.917,0l0,69.167c0,2.5 2,4.5 4.5,4.5l3.208,0c1.333,0 2.625,-0.583 3.458,-1.625l59.667,-72.042l46.583,0c3,0 5.583,-2.083 6.208,-5c2.333,-10.917 7.583,-27.792 20.167,-44.667c14.042,-18.875 30.833,-29.208 41.667,-34.5c2.75,-1.333 3.333,-5 1.167,-7.125c-28.875,-28.792 -65.625,-72 -96.5,-131.417l0.083,0l0,-0.042Z" style="fill:#4378ed;fill-rule:nonzero;"/><g><g><g><text x="423.125px" y="395.583px" style="font-family:'FrankRuhlHofshi-Regular', 'Frank Ruhl Hofshi';font-size:233.833px;fill:#4378ed;">SessionSyn</text><text x="1567.271px" y="395.583px" style="font-family:'FrankRuhlHofshi-Regular', 'Frank Ruhl Hofshi';font-size:233.833px;fill:#4378ed;">c</text></g></g></g></svg>