<?xml version="1.0" encoding="UTF-8" standalone="no"?><!DOCTYPE svg PUBLIC "-//W3C//DTD SVG 1.1//EN" "http://www.w3.org/Graphics/SVG/1.1/DTD/svg11.dtd"><svg width="100%" height="100%" viewBox="0 0 105 152" version="1.1" xmlns="http://www.w3.org/2000/svg" xmlns:xlink="http://www.w3.org/1999/xlink" xml:space="preserve" xmlns:serif="http://www.serif.com/" style="fill-rule:evenodd;clip-rule:evenodd;stroke-linejoin:round;stroke-miterlimit:2;"><path d="M69.8,55c-7.5,-14.5 -11.6,-27.6 -13.8,-37.9c-0.9,-0.6 -2.4,-0.2 -2.6,0.3l0,53.1c0.7,0.2 2.4,0.7 3.9,2.3c2,2.1 2.1,4.6 2.1,5.3c0,0.3 0.4,3.6 -2.2,5.8c-2,1.8 -4.4,1.7 -5.1,1.6c-0.7,-0.1 -0.2,0 -0.2,0c-0.7,0 -3.1,0.2 -5.1,-1.6c-2.5,-2.3 -2.2,-5.5 -2.2,-5.8c0,-0.7 0.1,-3.2 2.1,-5.3c1.5,-1.6 3.2,-2.1 3.9,-2.3l0,-53.1c0,-0.3 -1.7,-1.2 -2.6,-0.3c-2.2,10.3 -6.3,23.4 -13.8,37.9c-9,17.2 -19.6,29.8 -28,38.1c-0.6,0.6 -0.5,1.7 0.3,2.1c3.1,1.5 8,4.5 12.1,10c3.6,4.9 5.2,9.8 5.9,13c0.2,0.8 0.9,1.4 1.8,1.4l17.4,0l0,20.1c0,0.7 0.6,1.3 1.3,1.3l0.9,0c0.4,0 0.8,-0.2 1,-0.5l17.3,-20.9l13.5,0c0.9,0 1.6,-0.6 1.8,-1.4c0.7,-3.2 2.2,-8.1 5.9,-13c4.1,-5.5 8.9,-8.5 12.1,-10c0.8,-0.4 1,-1.4 0.3,-2.1c-8.4,-8.3 -19.1,-20.9 -28,-38.1Z" style="fill:#6366f1;fill-rule:nonzero;"/></svg>